<?xml version="1.0" encoding="UTF-8"?>
<svg width="106px" height="30px" viewBox="0 0 106 30" xmlns="http://www.w3.org/2000/svg" xmlns:xlink="http://www.w3.org/1999/xlink" version="1.1">
 <!-- Generated by Pixelmator Pro 2.1.4 -->
 <path id="Путь" d="M38.941 11.856 L38.941 16.948 C38.941 17.744 39.155 18.368 39.581 18.818 39.999 19.285 40.635 19.518 41.488 19.518 41.793 19.518 42.147 19.474 42.549 19.385 L42.779 19.337 42.851 19.337 C42.899 19.313 42.924 19.329 42.924 19.385 L42.924 21.34 C42.924 21.445 42.887 21.537 42.815 21.618 42.751 21.698 42.67 21.747 42.574 21.763 L42.284 21.811 42.127 21.811 41.463 21.835 C39.83 21.835 38.563 21.433 37.662 20.628 36.737 19.824 36.275 18.597 36.275 16.948 L36.275 11.856 35.333 11.856 C35.052 11.856 34.823 11.771 34.646 11.602 34.477 11.425 34.392 11.196 34.392 10.914 L34.392 10.371 C34.392 10.09 34.477 9.865 34.646 9.696 34.823 9.519 35.052 9.43 35.333 9.43 L36.275 9.43 36.275 7.548 C36.275 7.154 36.395 6.836 36.637 6.595 36.886 6.345 37.212 6.22 37.614 6.22 38.008 6.22 38.326 6.341 38.567 6.582 38.817 6.824 38.941 7.146 38.941 7.548 L38.941 9.43 41.717 9.43 C42.071 9.43 42.36 9.543 42.586 9.768 42.811 9.993 42.924 10.283 42.924 10.637 42.924 10.991 42.811 11.285 42.586 11.518 42.36 11.743 42.071 11.856 41.717 11.856 Z" fill="#000000" fill-opacity="1" stroke="none"/>
 <path id="Путь-1" d="M52.517 9.31 C52.871 9.31 53.16 9.422 53.386 9.647 53.619 9.873 53.736 10.162 53.736 10.516 53.736 10.87 53.619 11.16 53.386 11.385 53.16 11.61 52.871 11.723 52.517 11.723 52.372 11.723 52.179 11.711 51.938 11.687 51.696 11.663 51.503 11.651 51.358 11.651 51.036 11.651 50.699 11.683 50.345 11.747 49.999 11.812 49.649 11.916 49.295 12.061 48.941 12.198 48.647 12.399 48.414 12.664 48.189 12.93 48.076 13.235 48.076 13.581 L48.076 20.472 C48.076 20.866 47.951 21.188 47.702 21.437 47.453 21.686 47.131 21.811 46.737 21.811 46.342 21.811 46.021 21.686 45.771 21.437 45.522 21.188 45.397 20.866 45.397 20.472 L45.397 10.77 C45.397 10.375 45.522 10.054 45.771 9.804 46.021 9.555 46.342 9.43 46.737 9.43 L47.581 9.43 C47.662 9.43 47.73 9.442 47.786 9.466 47.851 9.483 47.899 9.515 47.931 9.563 47.972 9.611 48 9.655 48.016 9.696 48.04 9.736 48.056 9.796 48.064 9.877 48.072 9.949 48.076 10.005 48.076 10.046 48.084 10.086 48.084 10.15 48.076 10.239 L48.076 10.42 C48.551 10.034 49.21 9.752 50.055 9.575 50.9 9.398 51.72 9.31 52.517 9.31 Z" fill="#000000" fill-opacity="1" stroke="none"/>
 <path id="Путь-2" d="M56.849 6.064 C56.471 6.064 56.117 5.943 55.787 5.702 55.473 5.468 55.316 5.13 55.316 4.688 55.316 4.245 55.473 3.908 55.787 3.674 56.125 3.425 56.479 3.3 56.849 3.3 57.219 3.3 57.573 3.425 57.911 3.674 58.224 3.908 58.381 4.245 58.381 4.688 58.381 5.13 58.224 5.468 57.911 5.702 57.581 5.943 57.227 6.064 56.849 6.064 Z M56.825 9.382 C57.227 9.382 57.549 9.507 57.79 9.756 58.039 9.997 58.164 10.315 58.164 10.709 L58.164 20.423 C58.164 20.817 58.039 21.139 57.79 21.389 57.541 21.638 57.219 21.763 56.825 21.763 56.43 21.763 56.109 21.638 55.859 21.389 55.61 21.139 55.485 20.817 55.485 20.423 L55.485 10.709 C55.485 10.315 55.606 9.997 55.847 9.756 56.097 9.507 56.422 9.382 56.825 9.382 Z" fill="#000000" fill-opacity="1" stroke="none"/>
 <path id="Путь-3" d="M67.033 11.602 C65.738 11.602 64.805 11.948 64.234 12.64 63.662 13.356 63.377 14.329 63.377 15.56 63.377 16.147 63.457 16.666 63.618 17.117 63.779 17.591 64.029 18.01 64.366 18.372 64.696 18.758 65.082 19.039 65.525 19.216 65.992 19.418 66.494 19.518 67.033 19.518 67.444 19.518 67.886 19.442 68.361 19.289 69.165 18.959 69.752 18.464 70.122 17.805 70.501 17.137 70.689 16.389 70.689 15.56 70.689 15.013 70.605 14.502 70.436 14.028 70.267 13.553 70.022 13.131 69.7 12.761 69.402 12.423 69.016 12.137 68.542 11.904 68.075 11.703 67.572 11.602 67.033 11.602 Z M67.625 22.064 L67.057 22.064 66.418 22.004 C66.128 21.98 65.831 21.932 65.525 21.859 65.267 21.803 64.97 21.686 64.632 21.509 64.382 21.397 64.137 21.236 63.896 21.027 63.646 20.801 63.465 20.552 63.353 20.278 L63.353 26.553 C63.353 26.947 63.228 27.269 62.979 27.519 62.729 27.768 62.408 27.893 62.013 27.893 61.619 27.893 61.297 27.768 61.048 27.519 60.799 27.269 60.674 26.947 60.674 26.553 L60.674 10.709 C60.674 10.315 60.795 9.997 61.036 9.756 61.285 9.507 61.611 9.382 62.013 9.382 L62.605 9.382 C62.83 9.382 63.011 9.45 63.148 9.587 63.284 9.716 63.353 9.893 63.353 10.118 L63.353 10.89 C63.876 10.118 64.499 9.623 65.223 9.406 65.987 9.173 66.788 9.056 67.625 9.056 68.453 9.056 69.225 9.245 69.941 9.623 70.641 9.993 71.253 10.488 71.775 11.108 72.242 11.663 72.644 12.362 72.982 13.207 73.264 13.979 73.405 14.764 73.405 15.56 73.405 16.373 73.264 17.165 72.982 17.937 72.709 18.726 72.314 19.426 71.8 20.037 71.309 20.616 70.698 21.099 69.965 21.485 69.274 21.871 68.493 22.064 67.625 22.064 Z" fill="#000000" fill-opacity="1" stroke="none"/>
 <path id="Путь-4" d="M78.316 4.591 L78.316 20.423 C78.316 20.817 78.191 21.139 77.942 21.389 77.692 21.638 77.371 21.763 76.976 21.763 76.582 21.763 76.26 21.638 76.011 21.389 75.762 21.139 75.637 20.817 75.637 20.423 L75.637 4.591 C75.637 4.197 75.762 3.875 76.011 3.626 76.26 3.377 76.582 3.252 76.976 3.252 77.371 3.252 77.692 3.377 77.942 3.626 78.191 3.875 78.316 4.197 78.316 4.591 Z" fill="#000000" fill-opacity="1" stroke="none"/>
 <path id="Путь-5" d="M89.683 16.345 L86.22 16.345 C85.182 16.345 84.402 16.546 83.879 16.948 83.348 17.382 83.082 17.825 83.082 18.275 83.082 18.742 83.348 19.18 83.879 19.591 84.394 19.985 85.174 20.182 86.22 20.182 86.775 20.182 87.261 20.073 87.68 19.856 88.106 19.663 88.468 19.393 88.766 19.048 89.063 18.702 89.297 18.295 89.466 17.829 89.61 17.362 89.683 16.868 89.683 16.345 Z M92.326 14.052 L92.326 20.447 C92.326 20.858 92.209 21.183 91.976 21.425 91.742 21.666 91.424 21.787 91.022 21.787 L90.431 21.787 C90.206 21.787 90.025 21.722 89.888 21.594 89.751 21.457 89.683 21.276 89.683 21.051 L89.683 20.327 C89.377 20.681 89.072 20.954 88.766 21.147 88.331 21.413 87.969 21.594 87.68 21.69 87.334 21.827 86.94 21.932 86.497 22.004 86.079 22.076 85.669 22.113 85.266 22.113 84.735 22.113 84.172 22.036 83.577 21.883 82.974 21.706 82.471 21.469 82.069 21.171 81.61 20.858 81.24 20.459 80.959 19.977 80.677 19.502 80.536 18.943 80.536 18.299 80.536 17.672 80.677 17.121 80.959 16.646 81.208 16.22 81.57 15.834 82.045 15.488 82.487 15.166 82.99 14.933 83.553 14.788 84.116 14.643 84.687 14.571 85.266 14.571 L86.196 14.571 C87.442 14.571 88.335 14.547 88.874 14.498 89.413 14.474 89.683 14.366 89.683 14.172 L89.683 14.052 C89.683 13.625 89.61 13.239 89.466 12.893 89.273 12.515 89.055 12.234 88.814 12.049 88.476 11.783 88.158 11.602 87.861 11.506 87.459 11.377 87.068 11.313 86.69 11.313 86.32 11.313 85.95 11.377 85.58 11.506 85.299 11.594 84.985 11.775 84.639 12.049 84.39 12.25 84.168 12.531 83.975 12.893 83.871 13.167 83.806 13.356 83.782 13.461 83.702 13.855 83.484 14.052 83.131 14.052 L82.153 14.052 C81.823 14.052 81.562 13.951 81.369 13.75 81.176 13.549 81.107 13.296 81.164 12.99 81.236 12.628 81.357 12.282 81.526 11.952 81.823 11.349 82.238 10.83 82.769 10.396 83.299 9.969 83.891 9.647 84.542 9.43 85.202 9.213 85.918 9.104 86.69 9.104 87.414 9.104 88.134 9.205 88.85 9.406 89.566 9.639 90.165 9.953 90.648 10.347 91.139 10.75 91.549 11.26 91.879 11.88 92.177 12.483 92.326 13.207 92.326 14.052 Z" fill="#000000" fill-opacity="1" stroke="none"/>
 <path id="Путь-6" d="M105.732 10.661 L99.445 27.024 C99.332 27.305 99.151 27.531 98.902 27.7 98.653 27.876 98.375 27.965 98.069 27.965 L97.768 27.965 C97.373 27.965 97.1 27.852 96.947 27.627 96.794 27.402 96.786 27.104 96.923 26.734 L98.902 21.545 94.329 10.661 C94.168 10.291 94.164 9.993 94.316 9.768 94.469 9.543 94.747 9.43 95.149 9.43 L95.499 9.43 C95.797 9.43 96.066 9.515 96.308 9.684 96.557 9.853 96.738 10.074 96.851 10.347 L100.145 18.275 103.162 10.396 C103.266 10.106 103.447 9.873 103.705 9.696 103.962 9.519 104.24 9.43 104.537 9.43 L104.863 9.43 C105.265 9.43 105.543 9.543 105.696 9.768 105.856 9.993 105.869 10.291 105.732 10.661 Z" fill="#000000" fill-opacity="1" stroke="none"/>
 <defs>
  <linearGradient id="linear-gradient" gradientUnits="userSpaceOnUse" x1="8.906" y1="28.174" x2="11.933" y2="26.097">
   <stop offset="0" stop-color="#f881ac" stop-opacity="1"/>
   <stop offset="1" stop-color="#ea4280" stop-opacity="1"/>
  </linearGradient>
 </defs>
 <path id="Путь-7" d="M11.403 27.853 C11.403 28.902 10.597 29.752 9.602 29.752 8.608 29.752 7.802 28.902 7.802 27.853 7.802 26.804 8.608 25.954 9.602 25.954 10.597 25.954 11.403 26.804 11.403 27.853 Z" fill-opacity="1" fill="url(#linear-gradient)" stroke="none"/>
 <defs>
  <linearGradient id="linear-gradient-1" gradientUnits="userSpaceOnUse" x1="21.884" y1="9.76" x2="16.337" y2="14.733">
   <stop offset="0" stop-color="#9a5ee2" stop-opacity="1"/>
   <stop offset="1" stop-color="#9450e6" stop-opacity="1"/>
  </linearGradient>
 </defs>
 <path id="Путь-8" d="M19.357 17.769 C18.114 17.769 16.496 15.642 15.128 13.897 13.167 11.394 12.003 9.933 12.003 7.376 12.003 3.309 15.302 0 19.357 0 23.006 0 26.044 2.681 26.615 6.182 26.743 6.969 26.653 7.775 26.454 8.548 25.978 10.397 25.42 10.893 24.199 12.764 23.708 13.514 23.618 13.734 23.218 14.265 22.272 15.521 20.828 17.769 19.357 17.769 Z" fill-opacity="1" fill="url(#linear-gradient-1)" stroke="none"/>
 <defs>
  <linearGradient id="linear-gradient-2" gradientUnits="userSpaceOnUse" x1="12.497" y1="13.61" x2="5.482" y2="19.898">
   <stop offset="0" stop-color="#f77ca9" stop-opacity="1"/>
   <stop offset="1" stop-color="#e93e7d" stop-opacity="1"/>
  </linearGradient>
 </defs>
 <path id="Путь-9" d="M9.301 23.738 C7.729 23.738 5.682 21.048 3.953 18.841 1.473 15.676 0 13.828 0 10.595 0 5.451 4.173 1.266 9.301 1.266 14.025 1.266 17.938 4.818 18.526 9.398 18.627 10.189 18.538 10.993 18.352 11.769 17.732 14.365 17.034 14.942 15.424 17.408 14.804 18.358 14.689 18.636 14.184 19.307 12.988 20.896 11.161 23.738 9.301 23.738 Z" fill-opacity="1" fill="url(#linear-gradient-2)" stroke="none"/>
 <defs>
  <linearGradient id="linear-gradient-3" gradientUnits="userSpaceOnUse" x1="18.877" y1="21.379" x2="21.271" y2="19.737">
   <stop offset="0" stop-color="#9a5fe2" stop-opacity="1"/>
   <stop offset="1" stop-color="#9553e5" stop-opacity="1"/>
  </linearGradient>
 </defs>
 <path id="Путь-10" d="M20.851 21.125 C20.851 21.955 20.214 22.627 19.428 22.627 18.642 22.627 18.004 21.955 18.004 21.125 18.004 20.296 18.642 19.624 19.428 19.624 20.214 19.624 20.851 20.296 20.851 21.125 Z" fill-opacity="1" fill="url(#linear-gradient-3)" stroke="none"/>
</svg>
