<svg width="123" height="27" viewBox="0 0 123 27" fill="none" xmlns="http://www.w3.org/2000/svg">
<path d="M3.32814 4.79515C3.24633 5.30982 3.18482 5.82811 3.18759 6.33571C3.19314 7.35102 3.30354 8.36285 3.50534 9.32478C3.70373 10.3082 3.99353 11.2416 4.3239 12.1823C4.46886 12.5829 4.61725 12.9621 4.78592 13.3447C5.39648 14.7541 6.14245 16.0994 6.96291 17.3696C7.50312 18.1711 8.06713 18.9548 8.67846 19.7028C9.29324 20.4294 9.952 21.1417 10.6413 21.7933C11.2968 22.3948 11.976 22.9785 12.6891 23.4799C13.5341 24.071 14.4299 24.6049 15.3901 24.9959C16.2726 25.351 17.2295 25.6312 18.2308 25.6326C18.7314 25.6332 19.2388 25.5911 19.7228 25.4345C20.2066 25.2778 20.6839 25.0318 21.0699 24.7035C21.8894 24.011 22.337 23.0322 22.5108 22.0708C22.6878 21.0879 22.6349 20.1084 22.4737 19.1536C22.4595 19.6362 22.4251 20.1152 22.3739 20.5692C22.3192 21.0445 22.207 21.4876 22.0746 21.9272C21.9218 22.3631 21.7319 22.7704 21.5082 23.1276C21.2642 23.4812 20.9662 23.781 20.6378 24.0093C19.9607 24.4624 19.1453 24.6043 18.3471 24.5067C17.9378 24.456 17.5354 24.3625 17.1398 24.2261C16.7443 24.0897 16.3521 23.9319 15.9667 23.7311C15.6962 23.5949 15.4089 23.4336 15.1419 23.276C13.925 22.5307 12.7997 21.6033 11.776 20.5615C11.1475 19.9207 10.5428 19.2621 9.98892 18.5464C9.41135 17.8485 8.88115 17.1148 8.39837 16.3456C7.89186 15.5941 7.43277 14.807 6.99738 14.0021C6.93326 13.8804 6.86576 13.7802 6.82188 13.6622C6.45405 12.9574 6.12675 12.2598 5.84689 11.5266C5.6209 10.9794 5.41863 10.4142 5.25692 9.85634C5.03452 9.1553 4.85268 8.46157 4.73855 7.73566C4.64779 7.25652 4.60103 6.7631 4.55426 6.26973C4.50798 5.37951 4.56657 4.48586 4.81784 3.69258C5.07252 2.87786 5.55707 2.19215 6.24764 1.78557C6.59289 1.58229 6.99223 1.4327 7.39826 1.37249C7.80761 1.29083 8.244 1.30216 8.67693 1.33494C9.5428 1.4005 10.4186 1.66626 11.2842 1.99636C10.9056 1.75274 10.483 1.52336 10.0774 1.31902C9.64795 1.13253 9.21523 0.967481 8.75532 0.841718C7.85242 0.615238 6.83085 0.610243 5.88999 1.01647C5.41956 1.21959 4.99295 1.54073 4.63729 1.94063C4.28162 2.34052 4.00031 2.79772 3.80017 3.26933C3.55262 3.77661 3.43023 4.28408 3.32814 4.79515Z" fill="url(#paint0_linear_977_7105)"/>
<path d="M15.0663 17.4196L15.0571 17.4289C14.6142 17.4289 14.3321 17.1982 14.2108 16.7365L11.2076 5.47184C11.1349 5.20363 11.1622 4.98844 11.2896 4.82627C11.417 4.66409 11.6172 4.58301 11.8903 4.58301H13.956C14.4413 4.58301 14.7295 4.82002 14.8205 5.29406L16.5132 13.5274H16.7407L18.4152 5.29406C18.4941 4.82002 18.7762 4.58301 19.2615 4.58301H21.2182C21.4972 4.58301 21.6944 4.66098 21.8097 4.81691C21.931 4.97284 21.9583 5.18803 21.8915 5.46248L18.8702 16.7273C18.761 17.1888 18.4759 17.4196 18.0148 17.4196H15.0663ZM42.4495 16.5401H42.4586C42.5921 17.1264 42.3737 17.4196 41.8033 17.4196H39.6102C39.1976 17.4196 38.9549 17.2075 38.8821 16.7833L38.5636 15.3892H35.1145L34.8142 16.7833C34.7414 17.2075 34.4987 17.4196 34.0861 17.4196H32.0204C31.4319 17.4196 31.2135 17.1264 31.3651 16.5401L34.3683 5.27536C34.4896 4.81379 34.7717 4.58301 35.2146 4.58301H38.5727C39.0399 4.58301 39.325 4.81379 39.4281 5.27536L42.4495 16.5401ZM35.8062 12.3018H37.8902L36.9437 8.02606H36.7344L35.8062 12.3018ZM60.6869 14.2572C61.2082 14.2572 61.4692 14.5192 61.4692 15.0431V16.615C61.4692 17.1514 61.2082 17.4196 60.6869 17.4196H54.3256C53.8038 17.4196 53.5429 17.1514 53.5429 16.615V5.38763C53.5429 4.85121 53.8038 4.58301 54.3256 4.58301H56.1185C56.6404 4.58301 56.9008 4.85121 56.9008 5.38763V14.2572H60.6869ZM79.7795 14.2572C80.3014 14.2572 80.5623 14.5192 80.5623 15.0431V16.615C80.5623 17.1514 80.3014 17.4196 79.7795 17.4196H73.4184C72.8965 17.4196 72.6356 17.1514 72.6356 16.615V5.38763C72.6356 4.85121 72.8965 4.58301 73.4184 4.58301H75.2111C75.733 4.58301 75.9939 4.85121 75.9939 5.38763V14.2572H79.7795ZM99.2458 7.72664H95.0871V9.41077H98.5171C99.0269 9.41077 99.2819 9.67272 99.2819 10.1966V11.6937C99.2819 12.2175 99.0269 12.4795 98.5171 12.4795H95.0871V14.2759H99.2458C99.7676 14.2759 100.029 14.5441 100.029 15.0806V16.6337C100.029 17.1576 99.7676 17.4196 99.2458 17.4196H92.5105C91.9897 17.4196 91.7287 17.1576 91.7287 16.6337V5.36892C91.7287 4.84498 91.9897 4.58301 92.5105 4.58301H99.2458C99.7676 4.58301 100.029 4.84498 100.029 5.36892V6.92204C100.029 7.45844 99.7676 7.72664 99.2458 7.72664ZM111.867 17.4196L111.85 17.4476C111.552 17.4476 111.359 17.3572 111.267 17.1763C111.176 17.0017 111.212 16.749 111.376 16.4185L114.279 11.151L111.203 5.61217C111.04 5.30655 111.01 5.06017 111.113 4.87304C111.209 4.68592 111.416 4.59236 111.731 4.59236H114.106C114.531 4.59236 114.835 4.78884 115.017 5.18179L116.391 7.94185H116.6L117.983 5.18179C118.178 4.78884 118.481 4.59236 118.893 4.59236H120.941C121.244 4.59236 121.441 4.67968 121.532 4.85433C121.623 5.02897 121.587 5.27536 121.423 5.59347L118.521 10.8703L121.614 16.3998C121.766 16.7054 121.793 16.9518 121.696 17.1388C121.599 17.326 121.399 17.4196 121.096 17.4196H118.72C118.296 17.4196 117.993 17.2231 117.81 16.8301L116.436 14.0701H116.209L114.844 16.8301C114.643 17.2231 114.339 17.4196 113.934 17.4196H111.867Z" fill="#696F76"/>
<defs>
<linearGradient id="paint0_linear_977_7105" x1="-21.3085" y1="42.5517" x2="32.525" y2="4.62499" gradientUnits="userSpaceOnUse">
<stop offset="0.562833" stop-color="#171717"/>
<stop offset="0.774855" stop-color="white" stop-opacity="0"/>
</linearGradient>
</defs>
</svg>
