<svg width="28" height="28" viewBox="0 0 28 28" fill="none" xmlns="http://www.w3.org/2000/svg">
    <path d="M7.10007 27.901C5.4349 27.8252 4.53033 27.5481 3.92867 27.3135C3.13145 27.0031 2.56308 26.6336 1.96475 26.0361C1.36642 25.4386 0.996107 24.8702 0.687372 24.073C0.4527 23.4713 0.175588 22.5668 0.0998603 20.9016C0.0166434 19.1016 0 18.5615 0 14.0012C0 9.44096 0.0183077 8.90172 0.0990281 7.10007C0.174756 5.4349 0.453532 4.53199 0.68654 3.92867C0.996939 3.13145 1.36725 2.56308 1.96392 1.96392C2.56142 1.36642 3.12979 0.995274 3.92784 0.68654C4.5295 0.451868 5.43407 0.174756 7.09924 0.0990281C8.90005 0.0166434 9.44096 0 13.9996 0C18.5599 0 19.0991 0.0183077 20.9008 0.0990281C22.5659 0.174756 23.4688 0.453532 24.0722 0.68654C24.8694 0.995274 25.4377 1.36642 26.0361 1.96392C26.6344 2.56142 27.0031 3.13062 27.3135 3.92784C27.5481 4.5295 27.8252 5.43407 27.901 7.09924C27.9834 8.90088 28 9.44013 28 14.0004C28 18.559 27.9834 19.0999 27.901 20.9016C27.8252 22.5668 27.5465 23.4713 27.3135 24.073C27.0031 24.8702 26.6336 25.4386 26.0361 26.0361C25.4386 26.6336 24.8694 27.0031 24.0722 27.3135C23.4705 27.5481 22.5659 27.8252 20.9008 27.901C19.1008 27.9834 18.5599 28 13.9996 28C9.44096 28 8.90005 27.9842 7.10007 27.901Z"
          fill="#E6E6E6"/>
    <g transform="scale(0.035)">
        <g>
            <polygon
                    id="polygon9"
                    points="156.901,180.139 289.76,180.139 293.734,180.139 293.734,184.113 293.734,233.935 293.734,237.909 289.76,237.909 210.697,237.909 210.697,362.821 256.545,362.821 260.519,362.821 260.519,366.795 260.519,416.617 260.519,420.591 256.545,420.591 210.697,420.591 210.697,615.905 210.697,619.879 206.723,619.879 156.901,619.879 152.927,619.879 152.927,615.905 152.927,184.113 152.927,180.139 "
                    style="fill:#3D3D3D"/>
            <path
                    d="m 372.428,237.909 v 124.912 h 68.517 c 16.582,0 31.127,14.476 31.127,30.977 v 194.721 c 0,16.705 -14.545,31.359 -31.127,31.359 h -95.027 c -16.59,0 -31.143,-14.289 -31.143,-30.578 V 212.296 c 0,-16.829 14.448,-32.156 30.313,-32.156 h 95.858 c 16.582,0 31.127,14.468 31.127,30.961 v 72.657 3.974 h -3.974 -49.822 -3.974 v -3.974 -45.849 z m 0.016,182.68 v 141.519 h 41.875 V 420.589 Z"
                    id="Combined-Shape"
                    style="fill:#3D3D3D"/>
            <path
                    d="m 647.073,283.74 v 3.974 h -3.974 -49.822 -3.974 v -3.974 -45.849 h -41.875 v 124.913 l 69.116,0.016 c 16.441,0 30.529,19.672 30.529,35.777 v 189.705 c 0,16.812 -14.266,31.558 -30.529,31.558 h -92.918 c -16.254,0 -30.512,-14.367 -30.512,-30.744 v -106.004 -3.966 l 3.966,-0.007 46.368,-0.083 3.981,-0.007 v 3.981 79.063 h 41.875 V 420.574 l -65.706,0.016 c -16.239,0 -30.484,-14.553 -30.484,-31.143 V 211.282 c 0,-16.599 14.258,-31.16 30.512,-31.16 h 92.918 c 16.263,0 30.529,14.561 30.529,31.16 z"
                    id="path12"
                    style="fill:#3D3D3D"/>
        </g>
    </g>
    <defs>
        <clipPath id="clip0_1201_9137">
            <rect x="5.83203" y="5.83398" width="16.3333" height="16.3333" fill="white"/>
        </clipPath>
    </defs>
</svg>
