<svg width="28" height="28" viewBox="0 0 28 28" fill="none" xmlns="http://www.w3.org/2000/svg">
<path d="M7.10007 27.901C5.4349 27.8252 4.53033 27.5481 3.92867 27.3135C3.13145 27.0031 2.56308 26.6336 1.96475 26.0361C1.36642 25.4386 0.996107 24.8702 0.687372 24.073C0.4527 23.4713 0.175588 22.5668 0.0998603 20.9016C0.0166434 19.1016 0 18.5615 0 14.0012C0 9.44096 0.0183077 8.90172 0.0990281 7.10007C0.174756 5.4349 0.453532 4.53199 0.68654 3.92867C0.996939 3.13145 1.36725 2.56308 1.96392 1.96392C2.56142 1.36642 3.12979 0.995274 3.92784 0.68654C4.5295 0.451868 5.43407 0.174756 7.09924 0.0990281C8.90005 0.0166434 9.44096 0 13.9996 0C18.5599 0 19.0991 0.0183077 20.9008 0.0990281C22.5659 0.174756 23.4688 0.453532 24.0722 0.68654C24.8694 0.995274 25.4377 1.36642 26.0361 1.96392C26.6344 2.56142 27.0031 3.13062 27.3135 3.92784C27.5481 4.5295 27.8252 5.43407 27.901 7.09924C27.9834 8.90088 28 9.44013 28 14.0004C28 18.559 27.9834 19.0999 27.901 20.9016C27.8252 22.5668 27.5465 23.4713 27.3135 24.073C27.0031 24.8702 26.6336 25.4386 26.0361 26.0361C25.4386 26.6336 24.8694 27.0031 24.0722 27.3135C23.4705 27.5481 22.5659 27.8252 20.9008 27.901C19.1008 27.9834 18.5599 28 13.9996 28C9.44096 28 8.90005 27.9842 7.10007 27.901Z" fill="#E6E6E6"/>
<path d="M19 18L20 14H16V11C16 9.86954 16.2575 9 18 9H20V5C20 5 18.5342 5 17 5C13.7945 5 12 7.41881 12 11V14H8V18H12V28C12.7151 28.1144 13.2548 28 14 28C14.7452 28 15.2849 28.1144 16 28V18H19Z" fill="#3D3D3D"/>
</svg>
