<svg width="20" height="20" viewBox="0 0 20 20" fill="none" xmlns="http://www.w3.org/2000/svg">
<path d="M8.25 13H6.75C5.75544 13 4.80161 12.6313 4.09835 11.9749C3.39509 11.3185 3 10.4283 3 9.5C3 8.57174 3.39509 7.6815 4.09835 7.02513C4.80161 6.36875 5.75544 6 6.75 6H8.25" stroke="#767676" stroke-width="1.5" stroke-linecap="round" stroke-linejoin="round"/>
<path d="M11.75 6H13.25C14.2446 6 15.1984 6.36875 15.9017 7.02513C16.6049 7.6815 17 8.57174 17 9.5C17 10.4283 16.6049 11.3185 15.9017 11.9749C15.1984 12.6313 14.2446 13 13.25 13H11.75" stroke="#767676" stroke-width="1.5" stroke-linecap="round" stroke-linejoin="round"/>
<path d="M7.375 9.5H12.625" stroke="#767676" stroke-width="1.5" stroke-linecap="round" stroke-linejoin="round"/>
</svg>
