<svg width="28" height="28" viewBox="0 0 28 28" fill="none" xmlns="http://www.w3.org/2000/svg">
<path d="M7.10007 27.901C5.4349 27.8252 4.53033 27.5481 3.92867 27.3135C3.13145 27.0031 2.56308 26.6336 1.96475 26.0361C1.36642 25.4386 0.996107 24.8702 0.687372 24.073C0.4527 23.4713 0.175588 22.5668 0.0998603 20.9016C0.0166434 19.1016 0 18.5615 0 14.0012C0 9.44096 0.0183077 8.90172 0.0990281 7.10007C0.174756 5.4349 0.453532 4.53199 0.68654 3.92867C0.996939 3.13145 1.36725 2.56308 1.96392 1.96392C2.56142 1.36642 3.12979 0.995274 3.92784 0.68654C4.5295 0.451868 5.43407 0.174756 7.09924 0.0990281C8.90005 0.0166434 9.44096 0 13.9996 0C18.5599 0 19.0991 0.0183077 20.9008 0.0990281C22.5659 0.174756 23.4688 0.453532 24.0722 0.68654C24.8694 0.995274 25.4377 1.36642 26.0361 1.96392C26.6344 2.56142 27.0031 3.13062 27.3135 3.92784C27.5481 4.5295 27.8252 5.43407 27.901 7.09924C27.9834 8.90088 28 9.44013 28 14.0004C28 18.559 27.9834 19.0999 27.901 20.9016C27.8252 22.5668 27.5465 23.4713 27.3135 24.073C27.0031 24.8702 26.6336 25.4386 26.0361 26.0361C25.4386 26.6336 24.8694 27.0031 24.0722 27.3135C23.4705 27.5481 22.5659 27.8252 20.9008 27.901C19.1008 27.9834 18.5599 28 13.9996 28C9.44096 28 8.90005 27.9842 7.10007 27.901Z" fill="#E6E6E6"/>
<path d="M10.8246 13.9002C10.8246 12.2003 12.2022 10.8219 13.9021 10.8219C15.602 10.8219 16.9804 12.2003 16.9804 13.9002C16.9804 15.6001 15.602 16.9785 13.9021 16.9785C12.2022 16.9785 10.8246 15.6001 10.8246 13.9002ZM9.1605 13.9002C9.1605 16.519 11.2833 18.6418 13.9021 18.6418C16.5209 18.6418 18.6438 16.519 18.6438 13.9002C18.6438 11.2814 16.5209 9.15855 13.9021 9.15855C11.2833 9.15855 9.16058 11.2812 9.16058 13.9002M17.7235 8.97054C17.7234 9.1897 17.7883 9.40397 17.91 9.58624C18.0316 9.76852 18.2046 9.91061 18.4071 9.99457C18.6095 10.0785 18.8323 10.1005 19.0473 10.0579C19.2623 10.0152 19.4598 9.90975 19.6148 9.75484C19.7698 9.59993 19.8754 9.40253 19.9183 9.1876C19.9611 8.97266 19.9393 8.74985 19.8555 8.54734C19.7717 8.34483 19.6297 8.17171 19.4475 8.04988C19.2654 7.92805 19.0512 7.86297 18.832 7.86288H18.8316C18.5378 7.86302 18.2561 7.97975 18.0483 8.18743C17.8406 8.39512 17.7237 8.67677 17.7235 8.97054ZM10.1715 21.4166C9.27124 21.3756 8.7819 21.2257 8.45671 21.099C8.02559 20.9312 7.71798 20.7312 7.39456 20.4083C7.07114 20.0853 6.87095 19.778 6.70384 19.3469C6.57708 19.0218 6.42711 18.5323 6.38619 17.632C6.34142 16.6587 6.33248 16.3663 6.33248 13.9003C6.33248 11.4344 6.34216 11.1428 6.38619 10.1686C6.42719 9.26832 6.57826 8.7798 6.70384 8.4538C6.87168 8.02267 7.07159 7.71506 7.39456 7.39165C7.71753 7.06823 8.02485 6.86803 8.45671 6.70093C8.78175 6.57416 9.27124 6.4242 10.1715 6.38328C11.1449 6.33851 11.4373 6.32957 13.9021 6.32957C16.367 6.32957 16.6597 6.3391 17.6338 6.38342C18.5341 6.42442 19.0227 6.57549 19.3487 6.70108C19.7798 6.86818 20.0874 7.06882 20.4108 7.39179C20.7342 7.71477 20.9337 8.02282 21.1015 8.45394C21.2283 8.77899 21.3783 9.26847 21.4192 10.1688C21.464 11.1429 21.4729 11.4345 21.4729 13.9005C21.4729 16.3664 21.464 16.658 21.4192 17.6322C21.3782 18.5325 21.2275 19.0218 21.1015 19.347C20.9337 19.7781 20.7338 20.0857 20.4108 20.4084C20.0878 20.7311 19.7798 20.9313 19.3487 21.0991C19.0236 21.2259 18.5341 21.3759 17.6338 21.4168C16.6605 21.4616 16.3681 21.4705 13.9021 21.4705C11.4362 21.4705 11.1446 21.4616 10.1715 21.4168M10.0951 4.72194C9.11204 4.76671 8.44031 4.92258 7.85368 5.15085C7.24652 5.38658 6.73184 5.70283 6.2179 6.21595C5.70397 6.72908 5.38853 7.24383 5.1528 7.85173C4.92453 8.43873 4.76866 9.11009 4.72389 10.0931C4.67838 11.0777 4.66797 11.3925 4.66797 13.9002C4.66797 16.4079 4.67838 16.7227 4.72389 17.7072C4.76866 18.6904 4.92453 19.3616 5.1528 19.9486C5.38853 20.5558 5.70404 21.0715 6.2179 21.5844C6.73177 22.0973 7.24578 22.4131 7.85368 22.6495C8.44142 22.8778 9.11204 23.0337 10.0951 23.0784C11.0802 23.1232 11.3944 23.1343 13.9021 23.1343C16.4098 23.1343 16.7246 23.1239 17.7092 23.0784C18.6923 23.0337 19.3636 22.8778 19.9506 22.6495C20.5578 22.4131 21.0724 22.0975 21.5864 21.5844C22.1003 21.0713 22.4151 20.5558 22.6515 19.9486C22.8797 19.3616 23.0363 18.6903 23.0804 17.7072C23.1251 16.7219 23.1356 16.4079 23.1356 13.9002C23.1356 11.3925 23.1251 11.0777 23.0804 10.0931C23.0356 9.11001 22.8797 8.43836 22.6515 7.85173C22.4151 7.24456 22.0995 6.72989 21.5864 6.21595C21.0732 5.70202 20.5578 5.38658 19.9513 5.15085C19.3636 4.92258 18.6922 4.76597 17.7099 4.72194C16.7252 4.67695 16.4106 4.66602 13.9032 4.66602C11.3959 4.66602 11.0805 4.67643 10.0954 4.72194" fill="#3D3D3D"/>
</svg>
