<svg width="28" height="28" viewBox="0 0 28 28" fill="none" xmlns="http://www.w3.org/2000/svg">
<path d="M7.10007 27.901C5.4349 27.8252 4.53033 27.5481 3.92867 27.3135C3.13145 27.0031 2.56308 26.6336 1.96475 26.0361C1.36642 25.4386 0.996107 24.8702 0.687372 24.073C0.4527 23.4713 0.175588 22.5668 0.0998603 20.9016C0.0166434 19.1016 0 18.5615 0 14.0012C0 9.44096 0.0183077 8.90172 0.0990281 7.10007C0.174756 5.4349 0.453532 4.53199 0.68654 3.92867C0.996939 3.13145 1.36725 2.56308 1.96392 1.96392C2.56142 1.36642 3.12979 0.995274 3.92784 0.68654C4.5295 0.451868 5.43407 0.174756 7.09924 0.0990281C8.90005 0.0166434 9.44096 0 13.9996 0C18.5599 0 19.0991 0.0183077 20.9008 0.0990281C22.5659 0.174756 23.4688 0.453532 24.0722 0.68654C24.8694 0.995274 25.4377 1.36642 26.0361 1.96392C26.6344 2.56142 27.0031 3.13062 27.3135 3.92784C27.5481 4.5295 27.8252 5.43407 27.901 7.09924C27.9834 8.90088 28 9.44013 28 14.0004C28 18.559 27.9834 19.0999 27.901 20.9016C27.8252 22.5668 27.5465 23.4713 27.3135 24.073C27.0031 24.8702 26.6336 25.4386 26.0361 26.0361C25.4386 26.6336 24.8694 27.0031 24.0722 27.3135C23.4705 27.5481 22.5659 27.8252 20.9008 27.901C19.1008 27.9834 18.5599 28 13.9996 28C9.44096 28 8.90005 27.9842 7.10007 27.901Z" fill="#E6E6E6"/>
<g clip-path="url(#clip0_1201_9137)">
<path d="M5.83203 8.01228C5.83203 7.48675 6.01597 7.05319 6.38383 6.71161C6.7517 6.37001 7.22993 6.19922 7.81852 6.19922C8.3966 6.19922 8.86431 6.36738 9.22167 6.70372C9.58953 7.05057 9.77347 7.50251 9.77347 8.05958C9.77347 8.56408 9.5948 8.98449 9.23744 9.32084C8.86957 9.66769 8.38609 9.84111 7.78699 9.84111H7.77122C7.19314 9.84111 6.72543 9.66769 6.36807 9.32084C6.0107 8.97399 5.83203 8.5378 5.83203 8.01228ZM6.03699 21.8073V11.2758H9.53699V21.8073H6.03699ZM11.4762 21.8073H14.9762V15.9267C14.9762 15.5588 15.0182 15.275 15.1023 15.0753C15.2494 14.718 15.4728 14.4158 15.7723 14.1688C16.0719 13.9218 16.4476 13.7983 16.8996 13.7983C18.0768 13.7983 18.6654 14.5919 18.6654 16.1789V21.8073H22.1654V15.769C22.1654 14.2135 21.7975 13.0337 21.0618 12.2296C20.326 11.4256 19.3538 11.0235 18.1451 11.0235C16.7892 11.0235 15.7329 11.6069 14.9762 12.7735V12.8051H14.9604L14.9762 12.7735V11.2758H11.4762C11.4972 11.6121 11.5077 12.6579 11.5077 14.4132C11.5077 16.1684 11.4972 18.6331 11.4762 21.8073Z" fill="#3D3D3D"/>
</g>
<defs>
<clipPath id="clip0_1201_9137">
<rect x="5.83203" y="5.83398" width="16.3333" height="16.3333" fill="white"/>
</clipPath>
</defs>
</svg>
