<svg width="56" height="49" viewBox="0 0 56 49" fill="none" xmlns="http://www.w3.org/2000/svg">
<g clip-path="url(#clip0_977_7097)">
<path d="M18.6379 11.3892C18.4648 11.339 18.2813 11.3365 18.1068 11.382C17.9324 11.4276 17.7735 11.5194 17.647 11.6478C17.5205 11.7763 17.431 11.9365 17.3881 12.1116C17.3452 12.2867 17.3504 12.4701 17.4032 12.6425L20.6459 23.1838H32.0006C32.2658 23.1838 32.5201 23.2892 32.7077 23.4767C32.8952 23.6643 33.0006 23.9186 33.0006 24.1838C33.0006 24.4491 32.8952 24.7034 32.7077 24.891C32.5201 25.0785 32.2658 25.1838 32.0006 25.1838H20.6459L17.4032 35.7225C17.3504 35.8949 17.3452 36.0783 17.3881 36.2534C17.431 36.4285 17.5205 36.5888 17.647 36.7172C17.7735 36.8456 17.9324 36.9375 18.1068 36.983C18.2813 37.0285 18.4648 37.0261 18.6379 36.9758C27.4579 34.4109 35.7751 30.3589 43.2312 24.9945C43.3601 24.9019 43.465 24.78 43.5374 24.6388C43.6098 24.4976 43.6476 24.3412 43.6476 24.1825C43.6476 24.0238 43.6098 23.8674 43.5374 23.7263C43.465 23.5851 43.3601 23.4631 43.2312 23.3705C35.7752 18.006 27.4579 13.954 18.6379 11.3892Z" fill="white"/>
</g>
<defs>
<clipPath id="clip0_977_7097">
<rect width="27" height="26" fill="white" transform="translate(17 11.1826)"/>
</clipPath>
</defs>
</svg>
