<svg width="154" height="154" viewBox="0 0 154 154" fill="none" xmlns="http://www.w3.org/2000/svg">
<path d="M110.581 95.4281C103.413 95.4281 94.0764 86.5333 86.19 76.9921C74.8784 63.3069 68.1621 55.3156 68.1621 41.3359C68.1621 19.0969 87.1934 1 110.581 1C132.195 1 150.088 16.4568 152.677 36.3552C153.106 39.6472 152.717 42.9911 151.879 46.2036C148.509 59.1305 142.869 67.6947 133.851 79.0058C130.578 83.1114 136.156 76.1037 133.851 79.0058C128.396 85.8734 119.064 95.4281 110.581 95.4281Z" fill="url(#paint0_linear_815_16145)"/>
<path d="M133.851 79.0058C142.869 67.6947 148.509 59.1305 151.879 46.2036C152.717 42.9912 153.106 39.6472 152.677 36.3552C150.088 16.4568 132.195 1 110.581 1C87.1934 1 68.1621 19.0969 68.1621 41.3359C68.1621 55.3156 74.8784 63.3069 86.19 76.9921C94.0764 86.5333 103.413 95.4281 110.581 95.4281C119.064 95.4281 128.396 85.8734 133.851 79.0058ZM133.851 79.0058C130.578 83.1114 136.156 76.1037 133.851 79.0058Z" stroke="white"/>
<path d="M118.879 109.019C118.879 113.554 115.203 117.23 110.668 117.23C106.133 117.23 102.457 113.554 102.457 109.019C102.457 104.484 106.133 100.808 110.668 100.808C115.203 100.808 118.879 104.484 118.879 109.019Z" fill="url(#paint1_linear_815_16145)" stroke="white"/>
<path d="M55.7833 126.488C46.5268 126.488 34.4681 115 24.2829 102.678C9.67402 85.0033 1 74.6827 1 56.6281C1 27.9065 25.5788 4.53442 55.7833 4.53442C84.2196 4.53442 107.669 25.25 110.318 51.6423C110.649 54.9455 110.272 58.2805 109.478 61.504C105.171 78.9952 97.8082 90.2627 85.8371 105.278C81.6099 110.581 88.8141 101.53 85.8371 105.278C78.7922 114.148 66.74 126.488 55.7833 126.488Z" fill="url(#paint2_linear_815_16145)"/>
<path d="M85.8371 105.278C97.8082 90.2627 105.171 78.9952 109.478 61.504C110.272 58.2805 110.649 54.9455 110.318 51.6423C107.669 25.25 84.2196 4.53442 55.7833 4.53442C25.5788 4.53442 1 27.9065 1 56.6281C1 74.6827 9.67402 85.0033 24.2829 102.678C34.4681 115 46.5268 126.488 55.7833 126.488C66.74 126.488 78.7922 114.148 85.8371 105.278ZM85.8371 105.278C81.6099 110.581 88.8141 101.53 85.8371 105.278Z" stroke="white"/>
<path d="M68.1487 142.395C68.1487 148.251 63.4009 152.999 57.5441 152.999C51.6873 152.999 46.9395 148.251 46.9395 142.395C46.9395 136.538 51.6873 131.79 57.5441 131.79C63.4009 131.79 68.1487 136.538 68.1487 142.395Z" fill="url(#paint3_linear_815_16145)" stroke="white"/>
<defs>
<linearGradient id="paint0_linear_815_16145" x1="110.581" y1="1" x2="110.581" y2="95.4281" gradientUnits="userSpaceOnUse">
<stop stop-color="#9C64E1"/>
<stop offset="1" stop-color="#7C16F5"/>
</linearGradient>
<linearGradient id="paint1_linear_815_16145" x1="110.668" y1="100.808" x2="110.668" y2="117.23" gradientUnits="userSpaceOnUse">
<stop stop-color="#9C64E1"/>
<stop offset="1" stop-color="#7C16F5"/>
</linearGradient>
<linearGradient id="paint2_linear_815_16145" x1="55.7833" y1="4.53442" x2="55.7833" y2="126.488" gradientUnits="userSpaceOnUse">
<stop stop-color="#FB8CB4"/>
<stop offset="1" stop-color="#E32168"/>
</linearGradient>
<linearGradient id="paint3_linear_815_16145" x1="57.5441" y1="131.79" x2="57.5441" y2="152.999" gradientUnits="userSpaceOnUse">
<stop stop-color="#FB8CB4"/>
<stop offset="1" stop-color="#E32168"/>
</linearGradient>
</defs>
</svg>
