<svg width="936" height="213" viewBox="0 0 936 213" fill="none" xmlns="http://www.w3.org/2000/svg">
<path d="M148.226 127.864C138.596 127.864 126.052 115.914 115.457 103.095C100.26 84.7093 91.2363 73.9731 91.2363 55.1914C91.2363 25.3132 116.805 1 148.226 1C179.646 1 205.215 25.3132 205.215 55.1914C203.91 77.0086 193.063 88.7761 179.49 105.801C175.092 111.317 182.587 101.902 179.49 105.801C172.161 115.028 159.624 127.864 148.226 127.864Z" fill="url(#paint0_linear_2503_52677)"/>
<path d="M179.49 105.801C193.063 88.7761 203.91 77.0086 205.215 55.1914C205.215 25.3132 179.647 1 148.226 1C116.805 1 91.2363 25.3132 91.2363 55.1914C91.2363 73.9731 100.26 84.7093 115.457 103.095C126.052 115.914 138.596 127.864 148.226 127.864C159.624 127.864 172.161 115.028 179.49 105.801ZM179.49 105.801C175.092 111.317 182.587 101.902 179.49 105.801Z" stroke="white"/>
<path d="M160.091 144.412C160.091 150.505 155.152 155.444 149.059 155.444C142.966 155.444 138.027 150.505 138.027 144.412C138.027 138.319 142.966 133.38 149.059 133.38C155.152 133.38 160.091 138.319 160.091 144.412Z" fill="url(#paint1_linear_2503_52677)" stroke="white"/>
<path d="M74.6014 169.593C62.1653 169.593 45.9644 154.16 32.2806 137.605C12.6536 113.859 1 99.9933 1 75.7369C1 37.1494 34.0216 5.74902 74.6014 5.74902C115.181 5.74902 148.18 36.9222 148.18 75.5096C147.096 104.317 132.508 119.111 114.979 141.099C109.299 148.222 118.978 136.063 114.979 141.099C105.514 153.015 89.3217 169.593 74.6014 169.593Z" fill="url(#paint2_linear_2503_52677)"/>
<path d="M114.979 141.099C132.508 119.111 147.096 104.317 148.18 75.5096C148.18 36.9222 115.181 5.74902 74.6014 5.74902C34.0216 5.74902 1 37.1494 1 75.7369C1 99.9933 12.6536 113.859 32.2806 137.605C45.9644 154.16 62.1653 169.593 74.6014 169.593C89.3217 169.593 105.514 153.015 114.979 141.099ZM114.979 141.099C109.299 148.222 118.978 136.063 114.979 141.099Z" stroke="white"/>
<path d="M91.2134 190.965C91.2134 198.833 84.8347 205.212 76.9661 205.212C69.0975 205.212 62.7188 198.833 62.7188 190.965C62.7188 183.096 69.0975 176.717 76.9661 176.717C84.8347 176.717 91.2134 183.096 91.2134 190.965Z" fill="url(#paint3_linear_2503_52677)" stroke="white"/>
<path d="M481.328 49.9698C484.936 49.9698 487.822 51.0881 489.986 53.3248C492.223 55.4893 493.341 58.3392 493.341 61.8745V151.486C493.341 155.021 492.223 157.907 489.986 160.144C487.75 162.38 484.864 163.499 481.328 163.499C477.793 163.499 474.907 162.38 472.67 160.144C470.434 157.907 469.315 155.021 469.315 151.486V61.8745C469.315 58.3392 470.398 55.4893 472.562 53.3248C474.799 51.0881 477.721 49.9698 481.328 49.9698Z" fill="white"/>
<path d="M788.89 49.9698C792.498 49.9698 795.384 51.0881 797.548 53.3248C799.785 55.4893 800.903 58.3392 800.903 61.8745V151.486C800.903 155.021 799.785 157.907 797.548 160.144C795.312 162.38 792.426 163.499 788.89 163.499C785.355 163.499 782.469 162.38 780.232 160.144C777.996 157.907 776.877 155.021 776.877 151.486V61.8745C776.877 58.3392 777.96 55.4893 780.124 53.3248C782.361 51.0881 785.283 49.9698 788.89 49.9698Z" fill="white"/>
<path d="M441.177 49.5905C444.339 49.8779 448.496 51.9284 450.516 53.9486C459.233 62.665 449.271 76.3621 437.498 71.6962C433.01 69.9179 425.523 71.0179 421.877 71.6962C415.67 72.8509 410.182 75.5855 405.896 80.4624C403.876 82.8433 402.866 85.585 402.866 88.6874V151.729C402.866 155.264 401.747 158.15 399.511 160.387C397.274 162.623 394.388 163.742 390.853 163.742C387.317 163.742 384.432 162.623 382.195 160.387C379.958 158.15 378.84 155.264 378.84 151.729V63.4711C378.84 57.0688 383.359 52.1072 389.502 50.8357C392.509 50.2131 400.385 49.1587 401.954 52.2972C402.577 53.5424 402.577 56.423 402.577 58.3068C406.833 54.8436 415.693 51.7625 421.254 50.8357C428.726 49.5905 434.329 48.9679 441.177 49.5905Z" fill="white"/>
<path d="M574.383 72.6003C553.155 72.6003 542.541 86.3942 542.541 106.543C542.541 111.579 543.242 116.029 544.643 119.893C546.044 123.963 548.366 127.415 551.158 130.655C566.319 148.251 592.004 144.217 601.807 127.009C605.1 121.283 606.224 113.649 606.224 106.543C606.224 101.852 605.489 97.471 604.017 93.4006C602.546 89.3302 600.409 85.7083 597.607 82.5348C595.015 79.6372 591.652 77.1881 587.519 75.1874C583.455 73.4626 579.077 72.6003 574.383 72.6003ZM547.06 154.667C544.888 152.735 543.312 150.596 542.331 148.251V200.817C542.331 204.198 541.245 206.958 539.073 209.096C536.902 211.235 534.099 212.304 530.666 212.304C527.233 212.304 524.431 211.235 522.259 209.096C520.088 206.958 519.002 204.198 519.002 200.817V62.452C519.002 59.0715 520.053 56.3464 522.154 54.2767C525.866 50.6219 536.52 48.865 540.545 52.828C541.736 53.9318 542.331 55.4496 542.331 57.3813V66.4947C546.885 59.8717 552.287 56.3544 558.62 53.7661C571.03 48.6931 587.878 49.4763 599.709 55.6288C612.395 62.2341 622.408 72.9228 626.191 86.3637C630.446 101.482 630.125 118.454 624.843 131.367C619.239 145.064 611.166 151.284 598.694 158.138C586.222 164.993 560.159 165.846 547.06 154.667Z" fill="white"/>
<path d="M880.7 72.6003C859.472 72.6003 848.858 86.3942 848.858 106.543C848.858 111.579 849.559 116.029 850.96 119.893C852.361 123.963 854.683 127.415 857.475 130.655C872.636 148.251 898.321 144.217 908.124 127.009C911.416 121.283 912.541 113.649 912.541 106.543C912.541 101.852 911.805 97.471 910.334 93.4006C908.863 89.3302 906.726 85.7083 903.924 82.5348C901.332 79.6372 897.969 77.1881 893.835 75.1874C889.772 73.4626 885.393 72.6003 880.7 72.6003ZM853.377 154.667C851.205 152.735 849.629 150.596 848.648 148.251V200.817C848.648 204.198 847.562 206.958 845.39 209.096C843.218 211.235 840.416 212.304 836.983 212.304C833.55 212.304 830.748 211.235 828.576 209.096C826.404 206.958 825.318 204.198 825.318 200.817V62.452C825.318 59.0715 826.369 56.3464 828.471 54.2767C832.183 50.6219 842.837 48.865 846.861 52.828C848.052 53.9318 848.648 55.4496 848.648 57.3813V66.4947C853.202 59.8717 858.604 56.3544 864.936 53.7661C877.347 48.6931 894.195 49.4763 906.026 55.6288C918.712 62.2341 928.725 72.9228 932.508 86.3637C936.763 101.482 936.442 118.454 931.16 131.367C925.556 145.064 917.483 151.284 905.011 158.138C892.539 164.993 866.476 165.846 853.377 154.667Z" fill="white"/>
<path d="M365.883 36.4152H321.694V151.16C321.694 154.791 320.54 157.755 318.233 160.052C315.925 162.349 312.947 163.498 309.299 163.498C305.651 163.498 302.673 162.386 300.365 160.163C298.132 157.866 297.015 154.865 297.015 151.16V36.4152H252.603C249.327 36.4152 246.61 35.3779 244.451 33.3031C242.366 31.2284 241.324 28.5609 241.324 25.3006C241.324 22.0403 242.366 19.3727 244.451 17.298C246.61 15.1492 249.327 14.0747 252.603 14.0747H365.883C369.158 14.0747 371.839 15.1492 373.923 17.298C376.008 19.3727 377.05 22.0403 377.05 25.3006C377.05 28.5609 376.008 31.2284 373.923 33.3031C371.839 35.3779 369.158 36.4152 365.883 36.4152Z" fill="white"/>
<path d="M789.778 12.4243C781.965 12.4243 776.756 18.4077 776.756 24.3911C776.756 31.3447 781.965 37.3281 789.778 37.3281C796.451 37.3281 801.66 31.3447 801.66 24.3911C801.66 18.4077 796.451 12.4243 789.778 12.4243Z" fill="white"/>
<path d="M482.216 12.4243C474.403 12.4243 469.194 18.4077 469.194 24.3911C469.194 31.3447 474.403 37.3281 482.216 37.3281C488.889 37.3281 494.098 31.3447 494.098 24.3911C494.098 18.4077 488.889 12.4243 482.216 12.4243Z" fill="white"/>
<path d="M756.873 36.4152H712.684V151.16C712.684 154.791 711.53 157.755 709.222 160.052C706.914 162.349 703.936 163.498 700.289 163.498C696.641 163.498 693.663 162.386 691.355 160.163C689.121 157.866 688.005 154.865 688.005 151.16V36.4152H643.593C640.317 36.4152 637.6 35.3779 635.441 33.3031C633.356 31.2284 632.314 28.5609 632.314 25.3006C632.314 22.0403 633.356 19.3727 635.441 17.298C637.6 15.1492 640.317 14.0747 643.593 14.0747H756.873C760.148 14.0747 762.828 15.1492 764.913 17.298C766.997 19.3727 768.04 22.0403 768.04 25.3006C768.04 28.5609 766.997 31.2284 764.913 33.3031C762.828 35.3779 760.148 36.4152 756.873 36.4152Z" fill="white"/>
<defs>
<linearGradient id="paint0_linear_2503_52677" x1="148.226" y1="1" x2="148.226" y2="127.864" gradientUnits="userSpaceOnUse">
<stop stop-color="#9C64E1"/>
<stop offset="1" stop-color="#7C16F5"/>
</linearGradient>
<linearGradient id="paint1_linear_2503_52677" x1="149.059" y1="133.38" x2="149.059" y2="155.444" gradientUnits="userSpaceOnUse">
<stop stop-color="#9C64E1"/>
<stop offset="1" stop-color="#7C16F5"/>
</linearGradient>
<linearGradient id="paint2_linear_2503_52677" x1="74.5899" y1="5.74902" x2="74.5899" y2="169.593" gradientUnits="userSpaceOnUse">
<stop stop-color="#FB8CB4"/>
<stop offset="1" stop-color="#E32168"/>
</linearGradient>
<linearGradient id="paint3_linear_2503_52677" x1="76.9661" y1="176.717" x2="76.9661" y2="205.212" gradientUnits="userSpaceOnUse">
<stop stop-color="#FB8CB4"/>
<stop offset="1" stop-color="#E32168"/>
</linearGradient>
</defs>
</svg>
