<?xml version="1.0" encoding="UTF-8"?>
<svg width="102px" height="27px" viewBox="0 0 102 27" xmlns="http://www.w3.org/2000/svg" xmlns:xlink="http://www.w3.org/1999/xlink" version="1.1">
 <!-- Generated by Pixelmator Pro 2.1.4 -->
 <path id="Путь" d="M34.941 10.356 L34.941 15.448 C34.941 16.244 35.155 16.868 35.581 17.318 35.999 17.785 36.635 18.018 37.488 18.018 37.793 18.018 38.147 17.974 38.549 17.885 L38.779 17.837 38.851 17.837 C38.899 17.813 38.924 17.829 38.924 17.885 L38.924 19.84 C38.924 19.945 38.887 20.037 38.815 20.118 38.751 20.198 38.67 20.247 38.574 20.263 L38.284 20.311 38.127 20.311 37.463 20.335 C35.83 20.335 34.563 19.933 33.662 19.128 32.737 18.324 32.275 17.097 32.275 15.448 L32.275 10.356 31.333 10.356 C31.052 10.356 30.823 10.271 30.646 10.102 30.477 9.925 30.392 9.696 30.392 9.414 L30.392 8.871 C30.392 8.59 30.477 8.365 30.646 8.196 30.823 8.019 31.052 7.93 31.333 7.93 L32.275 7.93 32.275 6.048 C32.275 5.654 32.395 5.336 32.637 5.094 32.886 4.845 33.212 4.72 33.614 4.72 34.008 4.72 34.326 4.841 34.567 5.082 34.817 5.324 34.941 5.646 34.941 6.048 L34.941 7.93 37.717 7.93 C38.071 7.93 38.36 8.043 38.586 8.268 38.811 8.493 38.924 8.783 38.924 9.137 38.924 9.491 38.811 9.785 38.586 10.018 38.36 10.243 38.071 10.356 37.717 10.356 Z" fill="#ffffff" fill-opacity="1" stroke="none"/>
 <path id="Путь-1" d="M48.517 7.81 C48.871 7.81 49.16 7.922 49.386 8.147 49.619 8.373 49.736 8.662 49.736 9.016 49.736 9.37 49.619 9.66 49.386 9.885 49.16 10.11 48.871 10.223 48.517 10.223 48.372 10.223 48.179 10.211 47.938 10.187 47.696 10.163 47.503 10.15 47.358 10.15 47.036 10.15 46.699 10.183 46.345 10.247 45.999 10.311 45.649 10.416 45.295 10.561 44.941 10.698 44.647 10.899 44.414 11.164 44.189 11.43 44.076 11.735 44.076 12.081 L44.076 18.971 C44.076 19.366 43.951 19.687 43.702 19.937 43.453 20.186 43.131 20.311 42.737 20.311 42.342 20.311 42.021 20.186 41.771 19.937 41.522 19.687 41.397 19.366 41.397 18.971 L41.397 9.27 C41.397 8.875 41.522 8.554 41.771 8.304 42.021 8.055 42.342 7.93 42.737 7.93 L43.581 7.93 C43.662 7.93 43.73 7.942 43.786 7.966 43.851 7.983 43.899 8.015 43.931 8.063 43.972 8.111 44 8.155 44.016 8.196 44.04 8.236 44.056 8.296 44.064 8.377 44.072 8.449 44.076 8.505 44.076 8.546 44.084 8.586 44.084 8.65 44.076 8.739 L44.076 8.92 C44.551 8.534 45.21 8.252 46.055 8.075 46.9 7.898 47.72 7.81 48.517 7.81 Z" fill="#ffffff" fill-opacity="1" stroke="none"/>
 <path id="Путь-2" d="M52.849 4.564 C52.471 4.564 52.117 4.443 51.787 4.202 51.473 3.968 51.316 3.63 51.316 3.188 51.316 2.745 51.473 2.408 51.787 2.174 52.125 1.925 52.479 1.8 52.849 1.8 53.219 1.8 53.573 1.925 53.911 2.174 54.224 2.408 54.381 2.745 54.381 3.188 54.381 3.63 54.224 3.968 53.911 4.202 53.581 4.443 53.227 4.564 52.849 4.564 Z M52.825 7.882 C53.227 7.882 53.549 8.007 53.79 8.256 54.039 8.497 54.164 8.815 54.164 9.209 L54.164 18.923 C54.164 19.317 54.039 19.639 53.79 19.889 53.541 20.138 53.219 20.263 52.825 20.263 52.43 20.263 52.109 20.138 51.859 19.889 51.61 19.639 51.485 19.317 51.485 18.923 L51.485 9.209 C51.485 8.815 51.606 8.497 51.847 8.256 52.097 8.007 52.422 7.882 52.825 7.882 Z" fill="#ffffff" fill-opacity="1" stroke="none"/>
 <path id="Путь-3" d="M63.033 10.102 C61.738 10.102 60.805 10.448 60.234 11.14 59.662 11.856 59.377 12.829 59.377 14.06 59.377 14.648 59.457 15.166 59.618 15.617 59.779 16.091 60.029 16.51 60.366 16.872 60.696 17.258 61.082 17.539 61.525 17.716 61.992 17.918 62.494 18.018 63.033 18.018 63.444 18.018 63.886 17.942 64.361 17.789 65.165 17.459 65.752 16.964 66.122 16.305 66.5 15.637 66.689 14.889 66.689 14.06 66.689 13.513 66.605 13.002 66.436 12.528 66.267 12.053 66.022 11.631 65.7 11.261 65.402 10.923 65.016 10.637 64.542 10.404 64.075 10.203 63.572 10.102 63.033 10.102 Z M63.625 20.564 L63.057 20.564 62.418 20.504 C62.128 20.48 61.831 20.431 61.525 20.359 61.267 20.303 60.97 20.186 60.632 20.009 60.382 19.897 60.137 19.736 59.896 19.526 59.646 19.301 59.465 19.052 59.353 18.778 L59.353 25.053 C59.353 25.447 59.228 25.769 58.979 26.018 58.729 26.268 58.408 26.393 58.013 26.393 57.619 26.393 57.297 26.268 57.048 26.018 56.799 25.769 56.674 25.447 56.674 25.053 L56.674 9.209 C56.674 8.815 56.795 8.497 57.036 8.256 57.285 8.007 57.611 7.882 58.013 7.882 L58.605 7.882 C58.83 7.882 59.011 7.95 59.148 8.087 59.284 8.216 59.353 8.393 59.353 8.618 L59.353 9.39 C59.876 8.618 60.499 8.123 61.223 7.906 61.987 7.673 62.788 7.556 63.625 7.556 64.453 7.556 65.225 7.745 65.941 8.123 66.641 8.493 67.253 8.988 67.775 9.608 68.242 10.163 68.644 10.862 68.982 11.707 69.264 12.479 69.405 13.264 69.405 14.06 69.405 14.873 69.264 15.665 68.982 16.437 68.709 17.226 68.314 17.926 67.8 18.537 67.309 19.116 66.698 19.599 65.965 19.985 65.274 20.371 64.493 20.564 63.625 20.564 Z" fill="#ffffff" fill-opacity="1" stroke="none"/>
 <path id="Путь-4" d="M74.316 3.091 L74.316 18.923 C74.316 19.317 74.191 19.639 73.942 19.889 73.692 20.138 73.371 20.263 72.976 20.263 72.582 20.263 72.26 20.138 72.011 19.889 71.762 19.639 71.637 19.317 71.637 18.923 L71.637 3.091 C71.637 2.697 71.762 2.375 72.011 2.126 72.26 1.877 72.582 1.752 72.976 1.752 73.371 1.752 73.692 1.877 73.942 2.126 74.191 2.375 74.316 2.697 74.316 3.091 Z" fill="#ffffff" fill-opacity="1" stroke="none"/>
 <path id="Путь-5" d="M85.683 14.845 L82.22 14.845 C81.182 14.845 80.402 15.046 79.879 15.448 79.348 15.882 79.082 16.325 79.082 16.775 79.082 17.242 79.348 17.68 79.879 18.091 80.394 18.485 81.174 18.682 82.22 18.682 82.775 18.682 83.261 18.573 83.68 18.356 84.106 18.163 84.468 17.893 84.766 17.548 85.063 17.202 85.297 16.795 85.466 16.329 85.61 15.862 85.683 15.367 85.683 14.845 Z M88.326 12.552 L88.326 18.947 C88.326 19.358 88.209 19.683 87.976 19.925 87.742 20.166 87.424 20.287 87.022 20.287 L86.431 20.287 C86.206 20.287 86.025 20.222 85.888 20.094 85.751 19.957 85.683 19.776 85.683 19.551 L85.683 18.827 C85.377 19.181 85.072 19.454 84.766 19.647 84.331 19.913 83.969 20.094 83.68 20.19 83.334 20.327 82.94 20.431 82.497 20.504 82.079 20.576 81.669 20.613 81.266 20.613 80.735 20.613 80.172 20.536 79.577 20.383 78.974 20.206 78.471 19.969 78.069 19.671 77.61 19.358 77.24 18.959 76.959 18.477 76.677 18.002 76.536 17.443 76.536 16.799 76.536 16.172 76.677 15.621 76.959 15.146 77.208 14.72 77.57 14.334 78.045 13.988 78.487 13.666 78.99 13.433 79.553 13.288 80.116 13.143 80.687 13.071 81.266 13.071 L82.196 13.071 C83.442 13.071 84.335 13.047 84.874 12.998 85.413 12.974 85.683 12.866 85.683 12.672 L85.683 12.552 C85.683 12.125 85.61 11.739 85.466 11.393 85.273 11.015 85.055 10.734 84.814 10.549 84.476 10.283 84.158 10.102 83.861 10.006 83.459 9.877 83.068 9.813 82.69 9.813 82.32 9.813 81.95 9.877 81.58 10.006 81.299 10.094 80.985 10.275 80.639 10.549 80.39 10.75 80.168 11.031 79.975 11.393 79.871 11.667 79.806 11.856 79.782 11.961 79.702 12.355 79.484 12.552 79.131 12.552 L78.153 12.552 C77.823 12.552 77.562 12.451 77.369 12.25 77.176 12.049 77.107 11.796 77.164 11.49 77.236 11.128 77.357 10.782 77.526 10.452 77.823 9.849 78.238 9.33 78.769 8.896 79.299 8.469 79.891 8.147 80.542 7.93 81.202 7.713 81.918 7.604 82.69 7.604 83.414 7.604 84.134 7.705 84.85 7.906 85.566 8.139 86.165 8.453 86.648 8.847 87.139 9.25 87.549 9.76 87.879 10.38 88.177 10.983 88.326 11.707 88.326 12.552 Z" fill="#ffffff" fill-opacity="1" stroke="none"/>
 <path id="Путь-6" d="M101.732 9.161 L95.445 25.524 C95.332 25.805 95.151 26.031 94.902 26.2 94.653 26.377 94.375 26.465 94.069 26.465 L93.768 26.465 C93.374 26.465 93.1 26.352 92.947 26.127 92.794 25.902 92.786 25.604 92.923 25.234 L94.902 20.045 90.329 9.161 C90.168 8.791 90.164 8.493 90.317 8.268 90.469 8.043 90.747 7.93 91.149 7.93 L91.499 7.93 C91.797 7.93 92.066 8.015 92.308 8.184 92.557 8.353 92.738 8.574 92.851 8.847 L96.145 16.775 99.162 8.896 C99.266 8.606 99.447 8.373 99.705 8.196 99.962 8.019 100.24 7.93 100.537 7.93 L100.863 7.93 C101.265 7.93 101.543 8.043 101.696 8.268 101.857 8.493 101.869 8.791 101.732 9.161 Z" fill="#ffffff" fill-opacity="1" stroke="none"/>
 <defs>
  <linearGradient id="linear-gradient" gradientUnits="userSpaceOnUse" x1="7.334" y1="22.02" x2="9.741" y2="20.279">
   <stop offset="0" stop-color="#f881ac" stop-opacity="1"/>
   <stop offset="1" stop-color="#ea4280" stop-opacity="1"/>
  </linearGradient>
 </defs>
 <path id="Путь-7" d="M9.391 21.769 C9.391 22.588 8.727 23.252 7.908 23.252 7.089 23.252 6.425 22.588 6.425 21.769 6.425 20.951 7.089 20.287 7.908 20.287 8.727 20.287 9.391 20.951 9.391 21.769 Z" fill-opacity="1" fill="url(#linear-gradient)" stroke="none"/>
 <defs>
  <linearGradient id="linear-gradient-1" gradientUnits="userSpaceOnUse" x1="18.023" y1="7.643" x2="13.673" y2="11.756">
   <stop offset="0" stop-color="#9a5ee2" stop-opacity="1"/>
   <stop offset="1" stop-color="#9450e6" stop-opacity="1"/>
  </linearGradient>
 </defs>
 <path id="Путь-8" d="M15.942 13.896 C14.919 13.896 13.585 12.235 12.459 10.873 10.844 8.918 9.885 7.777 9.885 5.781 9.885 2.606 12.603 0.022 15.942 0.022 18.929 0.022 21.419 2.09 21.911 4.799 22.028 5.445 21.949 6.11 21.774 6.743 21.384 8.148 20.924 8.543 19.929 9.988 19.526 10.574 19.451 10.746 19.122 11.16 18.343 12.141 17.153 13.896 15.942 13.896 Z" fill-opacity="1" fill="url(#linear-gradient-1)" stroke="none"/>
 <defs>
  <linearGradient id="linear-gradient-2" gradientUnits="userSpaceOnUse" x1="10.292" y1="10.649" x2="4.791" y2="15.85">
   <stop offset="0" stop-color="#f77ca9" stop-opacity="1"/>
   <stop offset="1" stop-color="#e93e7d" stop-opacity="1"/>
  </linearGradient>
 </defs>
 <path id="Путь-9" d="M7.66 18.557 C6.366 18.557 4.68 16.456 3.256 14.733 1.213 12.262 -0 10.819 -0 8.294 -0 4.278 3.437 1.011 7.66 1.011 11.532 1.011 14.743 3.758 15.25 7.31 15.343 7.96 15.265 8.621 15.103 9.257 14.595 11.245 14.019 11.704 12.703 13.614 12.192 14.356 12.098 14.573 11.681 15.097 10.696 16.337 9.192 18.557 7.66 18.557 Z" fill-opacity="1" fill="url(#linear-gradient-2)" stroke="none"/>
 <defs>
  <linearGradient id="linear-gradient-3" gradientUnits="userSpaceOnUse" x1="15.547" y1="16.715" x2="17.449" y2="15.338">
   <stop offset="0" stop-color="#9a5fe2" stop-opacity="1"/>
   <stop offset="1" stop-color="#9553e5" stop-opacity="1"/>
  </linearGradient>
 </defs>
 <path id="Путь-10" d="M17.173 16.516 C17.173 17.164 16.648 17.689 16 17.689 15.353 17.689 14.828 17.164 14.828 16.516 14.828 15.869 15.353 15.344 16 15.344 16.648 15.344 17.173 15.869 17.173 16.516 Z" fill-opacity="1" fill="url(#linear-gradient-3)" stroke="none"/>
</svg>
