<svg width="265" height="60" viewBox="0 0 240 67" fill="none" xmlns="http://www.w3.org/2000/svg">
<path d="M7.57906 12.1702C7.35965 13.4765 7.19466 14.7919 7.20209 16.0803C7.21696 18.6572 7.51309 21.2254 8.05435 23.6669C8.58647 26.1628 9.36371 28.532 10.2498 30.9195C10.6386 31.9362 11.0366 32.8985 11.489 33.87C13.1266 37.4471 15.1274 40.8613 17.328 44.0853C18.777 46.1197 20.2896 48.1087 21.9294 50.0072C23.5783 51.8513 25.3452 53.6593 27.1939 55.3131C28.9521 56.8397 30.7738 58.3211 32.6866 59.5939C34.9529 61.094 37.3554 62.4491 39.9308 63.4415C42.2977 64.3429 44.8644 65.054 47.5499 65.0576C48.8927 65.0593 50.2537 64.9523 51.5516 64.5547C52.8495 64.1572 54.1296 63.5328 55.165 62.6994C57.3628 60.9421 58.5636 58.4575 59.0294 56.0174C59.5044 53.5228 59.3624 51.0365 58.9299 48.6133C58.8921 49.8382 58.7998 51.0539 58.6623 52.2061C58.5156 53.4126 58.2147 54.5374 57.8595 55.6529C57.4498 56.7593 56.9404 57.793 56.3404 58.6996C55.6861 59.597 54.8867 60.3581 54.0059 60.9377C52.1899 62.0876 50.0029 62.4477 47.862 62.1999C46.7644 62.0714 45.685 61.834 44.6239 61.4879C43.5629 61.1417 42.5109 60.741 41.4773 60.2316C40.7519 59.8858 39.9812 59.4765 39.265 59.0763C36.0012 57.1848 32.983 54.8307 30.2373 52.1868C28.5518 50.5604 26.9299 48.8887 25.4443 47.0721C23.8951 45.3007 22.473 43.4388 21.1781 41.4863C19.8196 39.5791 18.5883 37.5813 17.4205 35.5382C17.2485 35.2295 17.0674 34.9752 16.9498 34.6756C15.9631 32.8868 15.0853 31.1164 14.3347 29.2553C13.7286 27.8663 13.186 26.432 12.7523 25.0159C12.1558 23.2367 11.6681 21.4759 11.362 19.6335C11.1186 18.4174 10.9931 17.1651 10.8677 15.9128C10.7436 13.6533 10.9007 11.3852 11.5746 9.37174C12.2577 7.3039 13.5574 5.56351 15.4095 4.53157C16.3356 4.01561 17.4067 3.63593 18.4956 3.48312C19.5937 3.27588 20.764 3.30464 21.9252 3.38783C24.2476 3.55422 26.5966 4.22875 28.9182 5.06656C27.9028 4.44823 26.7695 3.86604 25.6814 3.34741C24.5298 2.87408 23.369 2.45517 22.1355 2.13597C19.7138 1.56115 16.9738 1.54847 14.4503 2.57952C13.1885 3.09504 12.0443 3.91014 11.0904 4.92511C10.1364 5.94008 9.38192 7.10049 8.8451 8.29748C8.18115 9.58503 7.85289 10.873 7.57906 12.1702Z" fill="url(#paint0_linear_220_2)"/>
<path d="M35.4336 45L35.4141 45.0195C34.4635 45.0195 33.8581 44.5378 33.5977 43.5742L27.1523 20.0586C26.9961 19.4987 27.0547 19.0495 27.3281 18.7109C27.6016 18.3724 28.0312 18.2031 28.6172 18.2031H33.0508C34.0924 18.2031 34.7109 18.6979 34.9062 19.6875L38.5391 36.875H39.0273L42.6211 19.6875C42.7904 18.6979 43.3958 18.2031 44.4375 18.2031H48.6367C49.2357 18.2031 49.6589 18.3659 49.9062 18.6914C50.1667 19.0169 50.2253 19.4661 50.082 20.0391L43.5977 43.5547C43.3633 44.5182 42.7513 45 41.7617 45H35.4336ZM94.2031 43.1641H94.2227C94.5091 44.388 94.0404 45 92.8164 45H88.1094C87.224 45 86.7031 44.5573 86.5469 43.6719L85.8633 40.7617H78.4609L77.8164 43.6719C77.6602 44.5573 77.1393 45 76.2539 45H71.8203C70.5573 45 70.0885 44.388 70.4141 43.1641L76.8594 19.6484C77.1198 18.6849 77.7253 18.2031 78.6758 18.2031H85.8828C86.8854 18.2031 87.4974 18.6849 87.7188 19.6484L94.2031 43.1641ZM79.9453 34.3164H84.418L82.3867 25.3906H81.9375L79.9453 34.3164ZM133.344 38.3984C134.464 38.3984 135.023 38.9453 135.023 40.0391V43.3203C135.023 44.4401 134.464 45 133.344 45H119.691C118.572 45 118.012 44.4401 118.012 43.3203V19.8828C118.012 18.763 118.572 18.2031 119.691 18.2031H123.539C124.659 18.2031 125.219 18.763 125.219 19.8828V38.3984H133.344ZM174.32 38.3984C175.44 38.3984 176 38.9453 176 40.0391V43.3203C176 44.4401 175.44 45 174.32 45H160.668C159.548 45 158.988 44.4401 158.988 43.3203V19.8828C158.988 18.763 159.548 18.2031 160.668 18.2031H164.516C165.635 18.2031 166.195 18.763 166.195 19.8828V38.3984H174.32ZM216.098 24.7656H207.172V28.2812H214.535C215.629 28.2812 216.176 28.8281 216.176 29.9219V33.0469C216.176 34.1406 215.629 34.6875 214.535 34.6875H207.172V38.4375H216.098C217.217 38.4375 217.777 38.9974 217.777 40.1172V43.3594C217.777 44.4531 217.217 45 216.098 45H201.645C200.525 45 199.965 44.4531 199.965 43.3594V19.8438C199.965 18.75 200.525 18.2031 201.645 18.2031H216.098C217.217 18.2031 217.777 18.75 217.777 19.8438V23.0859C217.777 24.2057 217.217 24.7656 216.098 24.7656ZM243.188 45L243.148 45.0586C242.51 45.0586 242.094 44.8698 241.898 44.4922C241.703 44.1276 241.781 43.6003 242.133 42.9102L248.363 31.9141L241.762 20.3516C241.41 19.7135 241.345 19.1992 241.566 18.8086C241.775 18.418 242.217 18.2227 242.895 18.2227H247.992C248.904 18.2227 249.555 18.6328 249.945 19.4531L252.895 25.2148H253.344L256.312 19.4531C256.729 18.6328 257.38 18.2227 258.266 18.2227H262.66C263.311 18.2227 263.734 18.4049 263.93 18.7695C264.125 19.1341 264.047 19.6484 263.695 20.3125L257.465 31.3281L264.105 42.8711C264.431 43.5091 264.49 44.0234 264.281 44.4141C264.073 44.8047 263.643 45 262.992 45H257.895C256.983 45 256.332 44.5898 255.941 43.7695L252.992 38.0078H252.504L249.574 43.7695C249.145 44.5898 248.493 45 247.621 45H243.188Z" fill="white"/>
<defs>
<linearGradient id="paint0_linear_220_2" x1="-58.4998" y1="108" x2="80.5071" y2="4.50935" gradientUnits="userSpaceOnUse">
<stop offset="0.562833" stop-color="white"/>
<stop offset="0.774855" stop-color="white" stop-opacity="0"/>
</linearGradient>
</defs>
</svg>
